<!-- Generated by IcoMoon.io -->
<svg version="1.1" xmlns="http://www.w3.org/2000/svg" width="57" height="32" viewBox="0 0 57 32">
<path d="M20.267 3.733l3.738 3.538-6.938-0.004v17.167h18.133v-6.564l3.733 3.534v-17.671h-18.667zM35.036 17.455l-10.597-10.032h10.597v10.032zM31.746 21.923h-11.81v-11.545h0.835v10.763h10.975v0.781zM22.725 26.72h0.364l-0.635 1.198v0.698h-0.331v-0.698l-0.637-1.198h0.366l0.436 0.899 0.436-0.899zM23.274 28.616l0.154-0.442h0.734l0.155 0.442h0.344l-0.717-1.896h-0.296l-0.716 1.896h0.342zM23.794 27.123l0.275 0.786h-0.549l0.275-0.787zM25.531 27.863c0.047-0.074 0.142-0.161 0.282-0.261-0.073-0.093-0.125-0.172-0.155-0.237-0.028-0.066-0.043-0.128-0.043-0.189 0-0.149 0.045-0.266 0.135-0.352s0.212-0.13 0.364-0.13l-0.001 0c0.007-0 0.013-0 0.020-0 0.123 0 0.236 0.047 0.32 0.123l0 0c0.081 0.072 0.132 0.176 0.132 0.293 0 0.003-0 0.005-0 0.007v-0c0 0.001 0 0.002 0 0.003 0 0.080-0.022 0.154-0.060 0.216l-0.002 0.003c-0.051 0.076-0.117 0.142-0.195 0.195l-0.129 0.094 0.366 0.432c0.053-0.104 0.079-0.22 0.079-0.348h0.275c0 0.234-0.054 0.425-0.164 0.574l0.278 0.33h-0.367l-0.107-0.126c-0.135 0.101-0.297 0.153-0.485 0.153s-0.338-0.050-0.45-0.149c-0.112-0.1-0.168-0.229-0.168-0.389v0c0-0.001 0-0.002 0-0.003 0-0.088 0.027-0.171 0.071-0.238zM26.387 28.283l-0.414-0.489-0.041 0.029c-0.104 0.079-0.156 0.17-0.156 0.271l0-0.001c-0 0.004-0 0.007-0 0.011 0 0.079 0.033 0.151 0.085 0.203l-0-0c0.056 0.051 0.13 0.083 0.212 0.083 0.005 0 0.011-0 0.015-0h0c0.114-0.001 0.218-0.041 0.299-0.107zM26.047 27.443l0.145-0.099 0.041-0.032c0.049-0.043 0.080-0.106 0.080-0.177 0-0.002-0-0.005-0-0.007 0-0.049-0.019-0.091-0.056-0.126l0 0c-0.035-0.033-0.083-0.054-0.135-0.054-0.002 0-0.005 0-0.007 0h0c-0.003-0-0.005-0-0.008-0-0.055 0-0.105 0.024-0.139 0.063-0.036 0.042-0.055 0.094-0.055 0.157 0 0.073 0.045 0.164 0.134 0.275zM29.133 28.473c-0.13 0.113-0.303 0.169-0.519 0.169-0.151 0-0.284-0.035-0.4-0.107-0.114-0.072-0.203-0.174-0.266-0.306s-0.095-0.285-0.098-0.46v-0.177l0 0.001c-0-0.008-0-0.015-0-0.023 0-0.163 0.035-0.318 0.096-0.451l0.002-0.005c0.058-0.127 0.151-0.234 0.27-0.31 0.119-0.074 0.256-0.111 0.411-0.111 0.21 0 0.378 0.057 0.506 0.171s0.201 0.274 0.222 0.482h-0.328c-0.016-0.136-0.056-0.234-0.12-0.294s-0.157-0.091-0.28-0.091c-0.143 0-0.253 0.052-0.331 0.157-0.076 0.105-0.115 0.257-0.117 0.46v0.167c0 0.205 0.037 0.362 0.11 0.469s0.181 0.162 0.323 0.162c0.129 0 0.227-0.029 0.292-0.087s0.106-0.155 0.124-0.29h0.328c-0.019 0.202-0.094 0.36-0.224 0.474zM31.069 28.207c0.064-0.141 0.097-0.304 0.097-0.49v-0.105c0-0.006 0-0.013 0-0.020 0-0.169-0.036-0.329-0.102-0.473l0.003 0.007c-0.060-0.134-0.156-0.243-0.274-0.318l-0.003-0.002c-0.119-0.075-0.256-0.112-0.411-0.112s-0.291 0.037-0.411 0.113c-0.119 0.075-0.211 0.182-0.277 0.324-0.062 0.137-0.098 0.297-0.098 0.466 0 0.008 0 0.016 0 0.025l-0-0.001v0.107c0.001 0.181 0.034 0.341 0.099 0.48 0.066 0.139 0.159 0.246 0.279 0.322 0.121 0.075 0.258 0.112 0.411 0.112 0.156 0 0.293-0.037 0.412-0.112 0.119-0.076 0.212-0.183 0.276-0.323zM30.716 27.135c0.080 0.112 0.119 0.274 0.119 0.484v0.099c0 0.213-0.039 0.376-0.118 0.487-0.078 0.111-0.19 0.167-0.336 0.167-0.004 0-0.009 0-0.014 0-0.134 0-0.253-0.067-0.324-0.17l-0.001-0.001c-0.081-0.114-0.121-0.275-0.121-0.483v-0.109c0.002-0.204 0.043-0.362 0.122-0.473 0.071-0.102 0.188-0.168 0.321-0.168 0.005 0 0.010 0 0.014 0l-0.001-0c0.146 0 0.259 0.056 0.338 0.168z"></path>
</svg>
